/* XPM */
static char * Sangband_xpm[] = {
"32 32 40 1",
" 	c None",
".	c #040404",
"+	c #161616",
"@	c #CC0000",
"#	c #330000",
"$	c #003333",
"%	c #1C1C1C",
"&	c #990000",
"*	c #800000",
"=	c #333300",
"-	c #663300",
";	c #0C0C0C",
">	c #FFFF00",
",	c #FFCC00",
"'	c #222222",
")	c #FF0000",
"!	c #CC9900",
"~	c #660000",
"{	c #FF3300",
"]	c #99CC33",
"^	c #008080",
"/	c #336633",
"(	c #FF6600",
"_	c #FF9900",
":	c #33CC66",
"<	c #339966",
"[	c #CCCC33",
"}	c #993333",
"|	c #CC6600",
"1	c #CCCC00",
"2	c #663366",
"3	c #CCFF00",
"4	c #CC9933",
"5	c #CC0033",
"6	c #555555",
"7	c #669966",
"8	c #CC6633",
"9	c #CC3333",
"0	c #663333",
"a	c #CC3300",
"  ..   + .    .                 ",
" .@. +++#.  .##.   $        $   ",
".@@#%&.$*. #@@.  $++       +.+$ ",
" #@%@@.$=.-**@+$#&.+    +$%@&+  ",
" *%@@;.$>,*+$%@@&#+    +#@@@'   ",
".#@))@&.$!#@@@))@.$   %@@)@;;$  ",
" $*)))@.$.$*@~@##.+  %&*@~)@&+  ",
" #$*@##.$#@#)@)&*+  %@@#@.*)@$  ",
"#*'&#@*#&$%@)))){]  ~@%$*^$*)*$ ",
"#@#)@))@){,,,,,,{/ +~@$ %$ $*@+ ",
".##))))){,,{{{,>,  #&%  .%  ;%  ",
"*###*@~{,,{))){,,] ~@$  $^      ",
"##@=.#@(,,{~@##{_: #@$     <[}  ",
".*@.#@)(,>,{)*.+   ~@$     |12} ",
".*.%@))),>>,,{.$  +#)*$   @{345 ",
" #%&~)@~{,>>>,,{} #&~@$  6@7>,5 ",
" +#)&##@@{,,>>>,,{&~@)*$  )8,{9 ",
"%@&#~@**)*~{,,,>>,)&#*@$  0{,@  ",
";*)@**@.*)@)*.{,>,))&&;.$  {,5  ",
"#@@*)@)@*#*))*#{,,)@))@&+  ){9  ",
";~#.#~))_{*~@~&#,,))@###$  0)9  ",
"..#@@@)),,{*#&#{,,@@)@@*+   )9  ",
"#*#@*@~),>,{{{{,,{)@####    }@  ",
"~@;#.~&~{,,,,,_{{)))@@*+  $     ",
"~@.#@&#.*a*@~@#*@~@#*@'  $      ",
".~*#@#+$;#.~&##&~@@.;*&$ .$     ",
" #@#)*$    $#.;#.*)*+$*&++      ",
" #@.*@...        $*@$ $#+       ",
" .@.;##&..        #)*$ $+       ",
" .~&. ;#.         $*@.          ",
"  ~@. ..           #)&.         ",
"  ;#..  .         +;##.$        "};
