/* XPM */
static char * angband_xpm[] = {
"32 32 7 1",
" 	c None",
".	c #000000",
"+	c #FFFF00",
"@	c #FFFFFF",
"#	c #800000",
"$	c #008000",
"%	c #0000FF",
"                                ",
"                                ",
" .......             ......     ",
"..+@+@+@...     .....@+@+@...   ",
".+@+@+@+@+.......+@+@+@+@+@+..  ",
"..+@+@+@+.+@+@+@+@+@+@+.+@+@+.  ",
" .@+@+@+@+.+@+...+@+@+..@+@+@.  ",
" .+@+@+@+@.@+..@.@+@+..@.@....  ",
"  .+@+@+@+.+..@#.+@+@.@#@.@#@.  ",
"  .@+@+@+@+@.@#@#.+@..#@#..@#.  ",
"  ..@+@+@+@..#@#@#.+.#@#@#@.... ",
"   .+@+@+@..#@#@#@#..@#@#@#@... ",
"   .@+@+..@#@#@#@#@#..@#@#@#@#. ",
"   .+@+..@#@#@#@#@#@#.#@#@#@#@. ",
"   .@+..@#@#..@#$#$#@#..@#@#@#. ",
"   .+..@#@#.@@.@$$#$#@#.#@#@#.. ",
"   .@+@#@#@.@@.#$$$$$#@....#@.  ",
"   .+@..#@#.@@.@#$$$$$#@......  ",
"   ....+@.@....+@$$$$$@+@+@..   ",
"   .+@+@.@+@#@+@+$$$$@$@+@..    ",
"   .@+@+@+@###@+@+@+$+@+@+.     ",
"   .+@+@+@+##@+@+@+@+@+@+@..    ",
"  .+@.@+@+##@+@+@%@+@+@+@+@.    ",
"  .@...@+##@+@+@+%%%%@+@+.+.    ",
"  .+@.@+@#@+@+@.@+%%%%%%@..@.   ",
" .+@+.+@+#+@+@..+@%%%%%%%@...   ",
" .@+@+@###@+@+...+@%@%%%%%@+.   ",
" .+@+@##+@+@+@. .@+@+@+@%%%@+.  ",
" ..+@+#@@+@.... ......@+@+@+@.  ",
"  ..+@#@+@..          ....+@+.  ",
"   .......                ....  ",
"                                "};
