/* XPM */
static char *iconforge_xpm[] = {
/* width height ncolors chars_per_pixel */
"32 32 10 1",
/* colors */
"` c black",
"a c none",
"b c sea green",
"c c slate gray",
"d c dark goldenrod",
"e c dark slate gray",
"f c dark green",
"g c red",
"h c yellow",
"i c blue",
/* pixels */
"aaaaaaaaaaaaaaaaaaaaaaaaaaaaaaaa",
"aaaaaaaaaaaaaaaaaaaaaaaaaaaaaaaa",
"a```````aaaaaaaaaaaaa``````aaaaa",
"``bcbcbc```aaaaa`````cbcbc```aaa",
"`bcbcbcbcb```````bcbcbcbcbcb``aa",
"``bcbcbcb`bcbcbcbcbcbcb`bcbcb`aa",
"a`cbcbcbcb`bcb```bcbcb``dbcbc`aa",
"a`bcbcbcbc`cb``d`cbcb``d`d````aa",
"aa`bcbcbcb`b``de`bcbc`ded`ded`aa",
"aa`cbcbcbcbc`dede`bc``ede``de`aa",
"aa``cbcbcbc``edede`b`ededed````a",
"aaa`bcbcbc``ededede``dededed```a",
"aaa`cbcb``dedededede``dededede`a",
"aaa`bcb``dededededede`edededed`a",
"aaa`cb``dede``defefede``dedede`a",
"aaa`b``dede`gh`dffefede`edede``a",
"aaa`cbdeded`hg`efffffed````ed`aa",
"aaa`bc``ede`gh`defffffed``````aa",
"aaa````bc`d````bdfffffcbcbc``aaa",
"aaa`bcbc`cbdedbcbffffcfcbc``aaaa",
"aaa`cbcbcbceeecbcbcbfbcbcb`aaaaa",
"aaa`bcbcbcbeecbcbcbcbcbcbc``aaaa",
"aa`bc`cbcbeecbcbcicbcbcbcbc`aaaa",
"aa`c```cbeecbcbcbiiiicbcb`b`aaaa",
"aa`bc`cbcecbcbc`cbiiiiiic``c`aaa",
"a`bcb`bcbebcbc``bciiiiiiic```aaa",
"a`cbcbceeecbcb```bciciiiiicb`aaa",
"a`bcbceebcbcbc`a`cbcbcbciiicb`aa",
"a``bcbeccbc````a``````cbcbcbc`aa",
"aa``bcecbc``aaaaaaaaaa````bcb`aa",
"aaa```````aaaaaaaaaaaaaaaa````aa",
"aaaaaaaaaaaaaaaaaaaaaaaaaaaaaaaa"
};

